<svg width="16" height="16" version="1.1" viewBox="0 0 4.2333 4.2333" xmlns="http://www.w3.org/2000/svg" xmlns:xlink="http://www.w3.org/1999/xlink">
 <defs>
  <linearGradient id="linearGradient3338">
   <stop stop-color="#000333" offset="0"/>
   <stop stop-color="#3c3fae" offset="1"/>
  </linearGradient>
  <linearGradient id="linearGradient3280">
   <stop stop-color="#c16d40" offset="0"/>
   <stop stop-color="#f6aa7d" offset="1"/>
  </linearGradient>
  <linearGradient id="linearGradient3106">
   <stop stop-color="#91498f" offset="0"/>
   <stop stop-color="#743073" offset="1"/>
  </linearGradient>
  <radialGradient id="radialGradient3244" cx="-30.106" cy="227.43" r="84.348" gradientTransform="matrix(1 0 0 .82762 0 39.203)" gradientUnits="userSpaceOnUse" xlink:href="#linearGradient3106"/>
  <radialGradient id="radialGradient3252" cx="192.53" cy="168.27" r="105.6" gradientTransform="matrix(1 0 0 .50199 0 83.802)" gradientUnits="userSpaceOnUse" xlink:href="#linearGradient3106"/>
  <radialGradient id="radialGradient3302" cx="65.967" cy="-300.79" r="147.42" gradientTransform="matrix(1 0 0 .73409 0 -79.983)" gradientUnits="userSpaceOnUse" xlink:href="#linearGradient3280"/>
  <radialGradient id="radialGradient3312" cx="139.59" cy="-284.95" r="31.727" gradientTransform="matrix(1 0 0 .97448 0 -7.2726)" gradientUnits="userSpaceOnUse" xlink:href="#linearGradient3280"/>
  <radialGradient id="radialGradient3322" cx="173.31" cy="-377.42" r="39.509" gradientTransform="matrix(1 0 0 .64529 0 -133.87)" gradientUnits="userSpaceOnUse" xlink:href="#linearGradient3280"/>
  <linearGradient id="linearGradient3332" x1="76.957" x2="143.47" y1="-271.77" y2="-247.48" gradientUnits="userSpaceOnUse">
   <stop stop-color="#570000" offset="0"/>
   <stop stop-color="#cc1616" offset="1"/>
  </linearGradient>
  <radialGradient id="radialGradient3340" cx="92.827" cy="-.44333" r="170.5" gradientTransform="matrix(1 0 0 1.0023 0 .0010161)" gradientUnits="userSpaceOnUse" xlink:href="#linearGradient3338"/>
  <linearGradient id="linearGradient3356" x1="161.13" x2="244.09" y1="-180.56" y2="-180.56" gradientUnits="userSpaceOnUse" xlink:href="#linearGradient3338"/>
  <linearGradient id="linearGradient3358" x1="77.592" x2="153.88" y1="-151.96" y2="-151.96" gradientUnits="userSpaceOnUse" xlink:href="#linearGradient3338"/>
  <radialGradient id="radialGradient3377" cx="56.261" cy="-138.9" r="185.44" gradientTransform="matrix(1 0 0 .53126 0 -65.108)" gradientUnits="userSpaceOnUse" xlink:href="#linearGradient3280"/>
  <radialGradient id="radialGradient3385" cx="257.68" cy="-202" r="79.443" gradientTransform="matrix(1 0 0 .53909 0 -93.102)" gradientUnits="userSpaceOnUse" xlink:href="#linearGradient3280"/>
 </defs>
 <g transform="matrix(.26458 0 0 .26458 9.2347 28.743)">
  <g transform="matrix(.079638 0 0 .079638 -29.123 -99.563)">
   <g transform="translate(168.11,12.76)">
    <g fill="#f9f9f9">
     <path transform="matrix(.26458 0 0 .26458 -168.11 -11.76)" d="m8.3288-104.48c-8.0418 0.239-16.115 1.5757-23.671 4.3816-2.6663 1.1781-5.4231 2.2475-7.8971 3.7961-0.77537 1.0742 0.81412 1.8054 1.379 2.53 3.4922 3.2678 7.1661 6.4403 9.7404 10.528 3.3172 5.0775 6.1005 10.704 6.9546 16.774 1.2858 11.229-3.0407 22.653-10.577 30.902-4.4742 4.9534-10.329 8.5517-16.689 10.535-5.1359 1.7609-10.723 2.7232-16.235 2.4707-1.3658 0.36637-0.35902 1.9542-0.34729 2.9093 1.1277 7.6855 3.9095 15.161 8.4664 21.48 5.1847 7.3282 12.265 13.42 20.65 16.767 3.692 1.5272 7.5279 2.7138 11.444 3.5109-1.0188-0.14204-2.6995 0.37398-2.2712 1.7076 0.95102 2.1924 2.4687 4.0855 3.9739 5.9211-3.0335-1.1179-5.6897-3.3494-6.9224-6.3843-1.5191-2.8304-4.9761-3.4531-7.6995-4.5747-6.1504-2.3498-11.873-5.8875-16.493-10.603-1.7522-1.5497-3.3068-3.4297-5.3709-4.5681-1.2425-0.30419-1.3076 1.2937-1.295 2.1258-0.11234 6.1 0.55306 12.35 3.1844 17.928 4.0335 9.1296 12.68 15.942 22.436 17.931 4.1262 0.89538 8.2515 1.8342 12.411 2.5532 6.5833 0.61987 13.23 0.12507 19.777-0.67745 7.0269-1.0009 13.907-3.3924 19.933-7.1606 8.4379-5.5602 14.129-14.718 16.344-24.491 0.30924-1.0794 0.57656-2.2143 0.99788-3.2389 1.2197 0.90131 2.3735-0.6055 3.1124-1.4244 4.0621-5.0826 7.2217-10.824 10.186-16.596 2.8298-5.5656 4.9478-11.596 5.2155-17.882 0.69432-9.102-0.57545-18.33-3.637-26.925-1.1324-3.1339-2.5369-6.166-4.141-9.0855 3.0665 3.8076 5.0261 8.3354 7.853 12.299 0.34972 0.79488 1.6908 0.96094 1.8066-0.06592 0.18318-3.3668 0.09605-6.8139-1.0019-10.038-2.5458-9.3261-7.6996-17.865-14.634-24.585-12.278-12.274-29.701-18.899-46.982-18.75zm4.9146 30.625c5.1686 0.0626 10.35 1.0255 14.894 3.4933-3.8913-0.66277-7.6865-2.21-11.703-2.5983-2.3741-0.32447-4.7673-0.48808-7.1603-0.59159 1.3143-0.1986 2.6406-0.30355 3.9701-0.30343zm-0.23682 19.104c5.9044 0.82772 11.769 2.8193 16.923 5.8411 0.4444 0.33238 1.2843 0.7784 1.3356 1.2937-3.9661-1.5949-7.6429-3.8711-11.732-5.1838-2.1204-0.75155-4.4855-1.4044-6.5268-1.951zm-6.4777 21.014c4.2181 2.4873 8.0845 5.6372 11.22 9.3712 0.2724 0.35503 0.80099 1.0463 0.82764 1.2448-4.0554-3.607-7.7747-7.6783-12.301-10.756l0.15636 0.08625z"/>
     <path transform="matrix(.26458 0 0 .26458 -168.11 -11.76)" d="m-25.43-94.186c-1.0418 0.01737-1.0818 1.3002-0.63407 1.9782 1.6286 4.6575 4.3865 8.9036 4.6422 13.931 0.29032 3.6862 0.35129 7.492-0.21519 11.18-3.127 11.691-11.964 21.636-23.118 26.29-4.8007 2.0262-10.015 3.1408-15.231 2.9543-4.7573 6e-3 -9.5983-0.29748-14.141-1.8653-0.8634-0.3024-2.5107-0.31941-2.3898 0.98982 0.72357 1.8268 2.4311 3.0526 3.7884 4.406 7.3427 6.6192 17.295 10.222 27.177 9.7736 5.1518-0.01015 10.424-0.43988 15.187-2.5624 8.6725-3.4951 16.16-10.066 20.238-18.535 4.0787-8.1901 4.7097-17.905 2.0466-26.629-1.7411-6.0675-4.9441-11.757-9.592-16.073-2.2541-2.0814-4.4505-4.3883-7.2356-5.7506-0.16829-0.05567-0.34505-0.09306-0.52316-0.08684z"/>
     <path transform="matrix(.26458 0 0 .26458 -168.11 -11.76)" d="m245.87-179.33c-1.2454-0.0857-1.7206 1.3699-1.2674 2.3455 1.5297 4.2172 3.8455 8.1193 5.5291 12.26 7.463 17.444 11.468 36.162 13.604 54.956 2.1589 19.35 2.0009 38.894-0.24836 58.214-0.16833 2.3839-0.72896 4.737-0.8391 7.1175 0.24758 1.5048 2.1614 1.2077 3.2714 1.2365 9.5177-0.51055 19.302-3.1556 26.698-9.4131 7.0525-6.0983 10.463-15.805 9.7217-24.997-0.3913-3.6534-1.5069-7.4823-4.1336-10.163-0.81805-0.75839-1.9963-0.07749-2.2799 0.86424-1.9762 3.8378-4.5079 7.3363-7.0832 10.785-1.6781 2.2151-2.5228 4.9862-2.8039 7.6731-0.38474 1.8359-0.96731 3.6304-1.7111 5.3519-0.0541-1.7899 0.5506-3.6662 0.0624-5.4258-0.52464-1.2024-2.0605-0.80754-2.8073-0.06104-1.1661 0.8914-2.2514 1.8826-3.3977 2.7989 4.5154-4.9212 9.4127-9.5685 13.003-15.259 4.7472-7.2139 7.7982-15.51 8.839-24.084 1.3835-10.72 0.67369-21.905-3.4449-31.989-2.1285-5.7115-5.0516-11.152-9.0311-15.795-6.69-7.9646-14.964-14.562-24.024-19.64-5.3272-2.8906-10.945-5.3279-16.86-6.7097-0.26272-0.0436-0.52901-0.0737-0.79571-0.0673z"/>
     <path transform="matrix(.26458 0 0 .26458 -168.11 -11.76)" d="m252.47-189.32c-3.9683 0.11469-8.036 0.10911-11.87 1.2566-1.3784 0.28263-2.1288 1.7759-1.6528 3.0661 0.81178 2.8361 3.9367 3.8454 6.4788 4.5295 5.7626 1.3943 11.445 3.1758 16.732 5.9174 9.4997 4.8083 18.349 11.052 25.541 18.942 2.1662 2.2146 3.612 5.0228 5.8012 7.2053 0.74732 0.91094 2.1555 0.54528 2.6172-0.45724 1.3495-2.7825 1.2033-6.0057 1.3292-9.0241 0.14777-7.7744-4.2191-14.943-9.954-19.9-9.5442-8.3387-22.577-11.622-35.023-11.535z"/>
    </g>
    <path d="m-180.29 67.837c-0.0672-0.06327-0.71757-0.17187-1.4452-0.24135-4.7615-0.45465-10.181-3.1872-13.331-6.7217-3.6391-4.083-4.8172-9.0094-3.5646-14.906 1.1614-5.4676 5.6974-10.785 12.001-14.069 2.5491-1.3279 7.4546-2.7848 9.0703-2.6939 0.44429 0.025 0.44608-0.01326 0.0311-0.6673-0.2421-0.3816-0.64146-0.93195-0.88745-1.223-1.8498-2.1886-4.8758-8.4123-6.5952-13.565-2.8211-8.4543-4.0428-16.96-4.1102-28.616l-0.0435-7.5211-1.4445-1.0665c-0.79449-0.58658-1.9208-1.5492-2.5029-2.1392-0.58208-0.59-1.6652-1.6071-2.4069-2.2603-0.74172-0.65318-2.3613-2.4377-3.599-3.9657-1.8442-2.2767-2.4007-3.1875-3.0832-5.0463-1.3131-3.5764-1.0386-6.7577 0.83425-9.6662 1.2144-1.886 4.5079-4.7694 8.3871-7.3428 7.8887-5.2331 10.378-7.2992 12.647-10.496 2.7212-3.8345 4.8341-8.5221 4.886-10.84 0.0155-0.6945-0.27003-2.0028-0.68532-3.1398-0.98882-2.7072-1.384-6.192-1.0248-9.0383 0.3292-2.6091 1.5835-8.6524 1.9306-9.3019 0.51502-0.96364 0.27705-1.4435-0.88632-1.7872-0.61846-0.18273-2.196-0.84847-3.5057-1.4794-2.283-1.0999-2.4267-1.2216-3.4838-2.9508-1.2821-2.0973-4.8684-5.7555-6.4955-6.6258-0.86662-0.46353-0.98921-0.60173-0.53378-0.60173 0.32517 0 0.59167 0.0893 0.59221 0.19844 5.6e-4 0.10914 0.52884 0.41549 1.174 0.68078 1.4234 0.5853 4.6781 3.895 5.9906 6.0919 0.83508 1.3977 1.1065 1.6179 3.55 2.8805 1.4552 0.75191 3.7769 1.7625 5.1594 2.2458 2.2408 0.78338 2.3701 0.92152 0.41862 0.4471-0.8136-0.19779-0.97702 0.10412-1.8826 3.4781-0.38834 1.4468-0.92531 3.4044-1.1933 4.3503-0.55533 1.9603-0.63819 4.477-0.24948 7.5771 0.33361 2.6606 0.83456 4.0877 2.4834 7.0746 2.0728 3.755 5.3616 6.6235 9.8164 8.5618 5.4956 2.3912 6.98 2.8179 11.772 3.3837 6.1541 0.72663 9.5315 0.49512 15.797-1.0828 5.6728-1.4287 10.874-4.2571 15.197-8.2635 1.0719-0.99353 2.7229-2.2694 3.6687-2.8353 2.2041-1.3186 4.4817-3.6003 5.278-5.2875 1.4283-3.0263 0.93831-7.4819-1.1247-10.227-1.6629-2.2129-2.8343-3.0599-6.2849-4.544-1.4626-0.62907-1.4719-0.64042-1.8028-2.1909-1.5536-7.2793-3.2722-10.754-7.2254-14.608-4.2143-4.109-8.5631-6.4175-13.838-7.3459-2.7249-0.47957-7.7473-0.47934-10.234 4.6e-4 -4.6973 0.90624-9.3914 3.3013-12.753 6.5071l-1.8584 1.7722 0.84493 1.0251c1.2284 1.4903 1.0352 1.6285-0.27954 0.19994-2.924-3.1773-6.8613-4.0755-11.264-2.5696-3.5104 1.2006-6.4308 1.886-6.6854 1.9466-2.3812 0.56618 2.5576-1.0537 2.7436-1.0537s1.1683-0.39676 2.1828-0.8817c2.763-1.3206 4.9261-1.6908 7.1887-1.2303 1.6602 0.33795 2.9722 0.86246 4.1061 1.6417l0.71897 0.49405 2.085-1.7978c6.6951-5.7727 15.377-8.0805 23.762-6.3166 2.4977 0.52541 4.0704 1.0734 6.5909 2.2965 1.1693 0.56742 2.2296 1.0317 2.3563 1.0317s0.59874-0.27479 1.049-0.61064c3.1674-2.3624 6.8734-2.5456 11.303-0.55889 1.1097 0.49772 2.1515 0.90495 2.3151 0.90495 0.16358 0 2.9701 1.1156 2.9701 1.2542 0 0.25182-2.9846-0.83491-7.0383-2.1845-2.8788-0.95844-5.8618-0.8608-8.1414 0.26651-0.83974 0.41526-1.644 0.89618-1.7871 1.0687-0.1867 0.22496 0.31102 0.7513 1.7597 1.8609 2.4527 1.8786 4.62 4.3485 6.4649 7.3677l1.3823 2.2621 1.7483-0.92203c1.4683-0.77435 1.9165-1.1866 2.7985-2.5743 2.0508-3.2266 6.1765-6.8291 7.7942-6.8057 0.22882 3e-3 0.0325 0.19512-0.43624 0.42623-1.0585 0.52191-3.4558 2.603-4.8376 4.1995-1.2876 1.4877-2.6445 3.4413-2.6445 3.8074 0 0.22046-3.2059 2.1802-4.0515 2.4767-0.11826 0.0415 0.0225 0.6294 0.31271 1.3065 0.29026 0.67713 0.79381 2.316 1.119 3.642l0.59126 2.4109 2.0864 1.0855c5.8694 3.0536 8.6242 9.1288 6.5796 14.51-0.51751 1.362-1.8331 3.3844-2.9869 4.5918-0.40965 0.42866-0.70484 0.81936-0.65598 0.86822 0.0489 0.04886 1.1513-0.14164 2.4498-0.42333 6.9695-1.5119 18.307-1.6145 24.586-0.22238 3.5111 0.77839 7.7835 4.176 9.4128 7.4855 0.7853 1.5952 0.87977 2.0276 0.88845 4.0672 0.0082 1.9306-0.09908 2.5156-0.69647 3.7973-0.91201 1.9567-2.0314 3.3326-3.9151 4.8126-1.4046 1.1035-4.9245 3.065-5.5001 3.065-0.13764 0-0.44947 0.81969-0.69298 1.8215-0.4005 1.6478-0.4043 1.9191-0.03986 2.8443 1.1799 2.9953 1.4325 7.8141 0.5721 10.911-0.34364 1.2369-0.34571 1.497-0.0159 2.0004 0.54436 0.83079 1.1721 3.0371 1.1717 4.1185-5.3e-4 1.4402-0.68205 3.6555-1.4783 4.8044-1.6137 2.3286-4.0399 3.5824-7.4886 3.8698-2.169 0.18076-2.2753 0.21932-2.3454 0.8508-0.12876 1.1592-1.1581 5.3511-1.8516 7.5406-0.64153 2.0254-1.0438 2.9945-2.9658 7.1438-0.47182 1.0186-1.5648 3.4594-2.4289 5.424-0.86405 1.9645-1.7342 3.9291-1.9337 4.3656-0.1995 0.43656-1.0916 2.4606-1.9825 4.4979-1.4411 3.2955-2.7246 5.7033-5.7331 10.756-0.48967 0.8223-0.89031 1.5604-0.89031 1.6401 0 0.07978 0.38695-0.01656 0.85989-0.21408 1.379-0.57594 4.8999-1.2237 7.4745-1.3752 5.9572-0.3504 12.88 1.9405 16.482 5.4542 4.5482 4.4367 4.5681 10.133 0.05295 15.161-5.1374 5.7215-13.98 9.0889-24.472 9.3197-13.402 0.29483-25.274-4.9443-29.068-12.828-1.6665-3.4628-0.76166-7.2549 2.3792-9.9708 2.7469-2.3752 3.2777-2.938 3.1312-3.32-0.0794-0.207-0.0185-0.70765 0.13546-1.1125 0.2509-0.65992 0.18224-0.84426-0.6628-1.7796-0.51849-0.5739-1.0708-1.3245-1.2273-1.6681l-0.28461-0.62466-0.96001 0.5324c-3.2064 1.7782-7.8399 6.0637-9.96 9.212-0.63697 0.94588-1.577 2.3151-2.089 3.0427-0.51198 0.7276-0.93509 1.5085-0.94023 1.7353-5e-3 0.22681 0.33837 1.3652 0.76336 2.5297 1.3977 3.8299 2.0456 8.3849 1.9713 13.859-0.026 1.9125-0.1979 3.0202-0.71898 4.6326-0.59697 1.8472-2.3564 5.2164-3.1976 6.1231-3.4207 3.6873-5.2772 5.1891-8.2335 6.6607-3.2884 1.6368-4.0234 1.8995-7.1304 2.5479-2.5675 0.53587-7.7334 0.90807-8.0798 0.58215zm8.7727-1.8554c8.7951-2.251 15.421-8.2933 17.204-15.689 0.57346-2.3788 0.5841-2.6325 0.27031-6.4461-0.35945-4.3685-0.65148-6.2677-1.3011-8.4618-0.66948-2.261-0.73327-2.2842-2.3122-0.84114-4.1159 3.7617-13 3.92-17.563 0.31301-1.3725-1.0849-2.4141-2.8485-2.4141-4.0874v-0.7443l-1.3891 0.1832c-0.76399 0.10076-2.2572 0.47412-3.3184 0.82968-6.5045 2.1796-11.501 6.3053-14.077 11.623-2.0559 4.2442-2.4089 7.6118-1.198 11.43 2.1275 6.7079 8.0364 11.248 16.411 12.609 1.9307 0.31375 7.1791-0.07461 9.6888-0.71692zm8.8321-22.688c-5.8954-2.5714-8.272-3.0195-15.875-2.9936-3.347 0.01143-6.8593 0.09518-7.8052 0.18615-1.3082 0.1258-1.5298 0.10341-0.92604-0.09355 4.051-1.3215 11.647-1.5698 16.65-0.5441 3.267 0.66983 6.4121 1.8048 8.6724 3.1295 1.4417 0.84496 1.7986 1.1473 1.3346 1.1305-0.10914-0.0039-1.0319-0.37067-2.0505-0.81497zm53.843 2.6885c11.052-2.3341 18.005-7.4408 19.351-14.211 0.42945-2.1607 0.02551-3.9617-1.3663-6.0918-1.7667-2.7039-5.3902-4.9628-9.9947-6.2307-2.7655-0.76156-9.3684-0.83649-11.959-0.13572-2.5499 0.68983-4.7625 1.5479-4.7625 1.8471 0 0.14495 0.35132 0.66367 0.78071 1.1527 0.42938 0.48904 0.86069 1.3156 0.95846 1.8367 0.13876 0.73964 0.27225 0.90849 0.60836 0.76948 1.4855-0.61436 4.5372-1.6726 5.2906-1.8345 1.5748-0.33857 0.81772 0.43562-1.0392 1.0626-2.1227 0.71673-5.1401 2.1581-7.3927 3.5314-3.4995 2.1335-6.234 3.8935-7.4002 4.7631l-1.1988 0.89387 0.92604-0.99711c0.50932-0.54841 1.3428-1.4 1.8521-1.8923l0.92604-0.89522-0.79375 0.19891c-0.43656 0.1094-2.4011 0.1907-4.3656 0.18066-3.9798-0.02035-6.1002-0.41775-8.8279-1.6546-1.8518-0.83965-2.5657-1.4341-3.2034-2.6672-0.22975-0.4443-0.54802-0.80782-0.70727-0.80782-0.50881 0-2.5077 2.2933-3.1033 3.5604-1.3396 2.8498-0.93659 4.9977 1.559 8.3095 3.7336 4.9548 10.308 8.2315 19.442 9.6905 3.5646 0.56933 10.833 0.37808 14.42-0.3794zm-54.98-9.836c2.014-0.42609 4.621-1.6695 5.5216-2.6335 1.0541-1.1284 0.97389-1.4152-0.22486-0.80368-2.1456 1.0946-4.0302 1.4705-7.3342 1.4628-4.3289-0.01008-7.416-0.97206-9.7798-3.0475-1.0982-0.96421-1.2509-0.56967-0.41432 1.0702 1.5994 3.1351 7.3342 4.9879 12.232 3.9518zm2.7175-3.7192c2.8008-0.86792 4.9401-2.5349 6.221-4.8477 2.2484-4.0596 7.1419-8.8059 12.175-11.809 2.9814-1.7788 8.8016-4.2164 9.1752-3.8428 0.23478 0.23478-2.18 1.6953-4.4126 2.6688-1.2369 0.53936-2.4027 1.1304-2.5906 1.3135-0.54071 0.52682-2e-3 1.5209 1.5089 2.7862 1.4476 1.212 1.6497 1.607 0.82214 1.607-0.34232 0-0.58337 0.23605-0.69492 0.68049-0.13461 0.53632 4e-3 0.8613 0.65642 1.534 0.89585 0.92428 1.0592 1.4897 0.43033 1.4897-1.2228 0 0.48088 1.6656 2.5753 2.5177 0.77977 0.31724 2.3919 0.735 3.5824 0.92834 2.527 0.41037 5.5522 0.08798 7.9975-0.85228 1.5167-0.58321 3.175-1.6588 3.175-2.0593 0-0.12782 0.45797-0.92544 1.0177-1.7725 0.55974-0.84703 1.3951-2.335 1.8563-3.3066 0.46124-0.97158 1.7945-3.4711 2.9628-5.5545 2.8016-4.9959 3.8041-7.0837 9.5073-19.799 0.5548-1.2369 1.0948-2.5466 1.1999-2.9104 0.10516-0.3638 0.70458-1.8697 1.332-3.3465 2.2571-5.3123 3.8125-13.99 3.8176-21.301 0.0052-7.4454-1.4365-15.306-3.8617-21.054l-1.0092-2.392-0.87071 0.41521c-0.47889 0.22837-0.87071 0.50734-0.87071 0.61994s0.52086 1.2514 1.1575 2.5307c1.631 3.2775 1.9258 4.1801 1.5237 4.6646-0.17762 0.21403-1.0619 0.51957-1.9651 0.67899s-2.3647 0.51047-3.2478 0.78012c-0.88312 0.26965-1.9783 0.43558-2.4338 0.36873-0.75722-0.11114-0.94177-0.35707-2.155-2.8716-0.81071-1.6803-1.4814-2.7501-1.7241-2.7501-0.21852 0-0.90747 0.16498-1.531 0.36662-2.64 0.85371-7.9025 2.185-11.122 2.8135-1.0352 0.2021-1.5214 0.42249-1.5214 0.68964 0 0.21594 0.33887 1.1898 0.75304 2.1641 0.41417 0.97429 0.91106 2.3892 1.1042 3.1443 0.45477 1.778 0.15624 2.199-1.559 2.199-0.67346 0-2.0579 0.18271-3.0764 0.40602-4.8671 1.067-4.7177 1.134-6.223-2.7873-0.80883-2.1069-1.6872-3.9454-1.8909-3.9579-0.0971-6e-3 -0.31013 0.61217-0.47343 1.3736-0.57096 2.6623-1.9053 5.9128-3.0383 7.4014-0.29978 0.39387-1.0731 1.4059-1.7186 2.249-1.0178 1.3294-2.9074 3.1366-4.9831 4.7658l-0.60039 0.47122 0.58284 1.4552c0.53189 1.328 0.58436 1.9293 0.60038 6.8792 0.0162 4.9953-0.0309 5.5686-0.59561 7.2543-0.71887 2.1459-1.7082 3.7015-3.6315 5.7103-1.0741 1.1217-1.4347 1.7126-1.5739 2.5783-0.0993 0.6177-0.28927 1.1903-0.42213 1.2724-0.13286 0.082111-0.24156 0.3708-0.24156 0.64152 0 0.6801-2.4683 3.319-3.8763 4.1441-4.2967 2.5181-10.485 2.8294-15.018 0.75572-1.8104-0.82808-1.9101-0.90026-3.6546-2.6451-1.9881-1.9885-2.4282-3.1538-2.3952-6.3416 0.0202-1.9538-0.0828-2.8454-0.39746-3.4396-0.23362-0.44117-0.61663-1.685-0.85112-2.7641l-0.42634-1.962-1.3086-0.44637c-2.1282-0.72594-2.6174-0.96461-3.5009-1.708-0.46176-0.38855-0.96106-0.63136-1.1096-0.53958-0.6236 0.3854-0.16434 13.823 0.65119 19.053 1.1874 7.6159 2.05 11.147 4.1692 17.066 1.4643 4.0898 4.5964 9.9338 6.1643 11.502 0.44728 0.44728 0.89722 0.98918 0.99987 1.2042 0.9373 1.9636 2.0923 2.8234 5.2079 3.8769 2.4605 0.83204 7.0308 0.85043 9.6498 0.03884zm37.23-3.7915c2.1341-0.43996 5.2789-1.8614 6.3841-2.8857 0.90575-0.83942 0.90067-1.6672-0.017-2.7664l-0.72777-0.87175-1.0806 1.8078c-0.62821 1.0509-1.5143 2.1109-2.1165 2.5317-3.1456 2.1984-9.8913 2.6557-14.209 0.96321-1.6736-0.65607-2.223-0.62762-0.75377 0.03903 1.1846 0.53751 3.5207 1.1971 4.9308 1.3921 1.9136 0.26464 5.8102 0.15684 7.5895-0.20996zm-14.57-2.9549c-0.45332-0.54996-0.82423-1.2347-0.82423-1.5217 0-0.3793-0.0794-0.44237-0.29087-0.23093-0.41405 0.41406-0.083 1.2328 0.87857 2.1729 1.1133 1.0885 1.2622 0.82399 0.23653-0.42027zm-24.717-26.391c3.2241-0.89282 5.0631-2.1597 6.584-4.5357 0.47161-0.73677 0.99422-1.8679 1.1613-2.5135 0.54665-2.112 0.58097-2.1923 0.79187-1.851 0.33912 0.54871 3.2918-4.2782 4.093-6.6911 1.2034-3.6243 0.49332-8.8111-1.708-12.476l-0.79471-1.3229 0.90576 1.0088c0.49817 0.55485 1.2439 1.6559 1.6571 2.4468 0.41323 0.79087 0.85414 1.4382 0.97981 1.4386 0.32987 7.93e-4 -0.0582-2.2592-0.66751-3.8878-2.2394-5.9854-8.6131-10.135-15.568-10.135-2.5038 0-5.5902 0.65994-7.3968 1.5816l-1.0896 0.5559 1.4559 1.3306c1.7238 1.5755 3.2017 4.3048 3.4629 6.3953 0.49559 3.9666-1.8177 8.3867-5.4136 10.344-1.4541 0.79143-3.9484 1.4886-5.3256 1.4886h-0.96662l0.24421 1.3891c0.5439 3.0936 2.756 6.3723 5.4777 8.1188 1.6031 1.0287 3.6675 1.7695 5.8803 2.11l1.687 0.25963-1.6238-0.066508c-1.5676-0.064209-1.6134-0.047704-1.3229 0.47738 0.16548 0.29914 0.53618 0.81839 0.8238 1.1539 0.52087 0.60758 0.52087 0.60923 0 0.41666-1.005-0.3716-1.6624-0.92587-1.9653-1.6571-0.23303-0.56259-0.63186-0.83987-1.6859-1.1721-1.7303-0.54543-3.5479-1.6878-4.8966-3.0776-0.57272-0.59015-1.132-1.073-1.2428-1.073s-0.13419 0.88923-0.052 1.9761c0.30898 4.0853 3.0348 7.1319 7.029 7.856 0.8233 0.14926 1.9136 0.37358 2.423 0.49849 1.2524 0.30716 5.3707 0.081177 7.0635-0.3876zm-1.2466-18.051c-0.6527-0.67572-1.7225-1.5664-2.3773-1.9793-1.3909-0.87706-1.235-0.99668 0.28704-0.22019 1.1777 0.6008 3.0392 2.1929 3.4403 2.9423 0.45198 0.84454-0.12168 0.52892-1.35-0.74274zm3.0818-6.1055c-0.70823-0.38058-2.137-0.89779-3.175-1.1493-2.0932-0.50727-1.2928-0.68948 0.94393-0.21489 1.5708 0.3333 3.9156 1.4253 3.9156 1.8236 0 0.37924-0.25164 0.31062-1.6846-0.4594zm-0.69669-5.6572c-0.80037-0.25858-2.3482-0.49073-3.4396-0.5159l-1.9844-0.04575 1.3229-0.25473c1.5943-0.30698 3.5928-0.09177 5.0181 0.54036 1.4696 0.65174 0.83604 0.84241-0.91708 0.27602zm-13.659 11.194c5.5053-2.5762 7.3376-8.9596 4.0647-14.161-0.70959-1.1277-3.0329-3.2521-3.283-3.0019-0.052 0.05204 0.2303 0.79736 0.62743 1.6563 0.58169 1.2581 0.7232 1.9498 0.72793 3.5587 5e-3 1.7265-0.11098 2.2344-0.85692 3.7496-1.4811 3.0086-4.3645 5.1851-7.6898 5.8044-1.5435 0.28749-4.311 0.13187-5.4663-0.30736-0.93046-0.35376-0.81693 0.07179 0.27489 1.0304 2.1601 1.8966 4.5391 2.7053 7.5793 2.5763 1.8773-0.07961 2.6092-0.2444 4.0218-0.90544zm-6.0997-3.625c4.3879-1.1429 6.971-4.0014 7.2595-8.0334 0.24987-3.4923-1.2057-6.4696-4.1008-8.388-2.8524-1.8901-3.3754-2.2049-4.5663-2.7486-0.65484-0.29896-0.89297-0.4568-0.52917-0.35077 1.0402 0.30318 2.0544 0.21342 4.8636-0.43043 3.4994-0.80202 6.4816-1.9718 8.5318-3.3466 0.92924-0.62312 1.6149-1.0122 1.5237-0.86457-0.65578 1.0611-7.3388 4.5147-10.223 5.2829-0.69123 0.18412-1.2568 0.42608-1.2568 0.53769 0 0.23809 4.0913 3.3079 4.9601 3.7217 0.49056 0.23365 0.95684 0.11312 2.667-0.68939 5.06-2.3745 10.193-2.3057 15.259 0.20443 2.3713 1.175 4.2004 2.6647 5.8536 4.7675l0.81832 1.0409 0.76508-0.5952c2.805-2.1822 5.9385-5.8776 7.3179-8.6303 0.74452-1.4857 1.7815-4.6744 1.7815-5.478 0-0.2901 0.18997-0.92779 0.42216-1.4171 0.41233-0.86893 0.40199-0.92527-0.44427-2.4212-1.8212-3.2194-4.6496-7.0881-7.5601-10.341-1.0124-1.1314-1.0274-1.1374-3.5303-1.4077-3.0154-0.32564-7.1668-1.2715-9.5998-2.1873-2.8615-1.0771-6.8094-3.2219-8.5909-4.6672-1.5673-1.2716-4.2825-4.499-4.3131-5.1269-8e-3 -0.1602-0.22544 0.36869-0.48358 1.1753-0.59241 1.8511-2.6624 5.9332-4.1504 8.1851-3.0562 4.6248-5.59 6.9803-12.713 11.818-2.6023 1.7674-5.1657 3.6129-5.6966 4.101-0.53084 0.48816-1.4637 1.3419-2.0731 1.8972-0.60938 0.55528-1.4252 1.6864-1.813 2.5135-0.59998 1.2799-0.705 1.8587-0.705 3.8852 0 2.0244 0.10527 2.6058 0.70241 3.8795 1.5619 3.3316 7.2872 9.5351 11.757 12.739 2.2771 1.6321 5.0296 2.1131 7.8658 1.3743zm14.781-25.984c0.78851-0.90254 1.8878-2.4176 2.4429-3.3667 0.94311-1.6127 1.7411-2.5909 1.7411-2.1345 0 0.66106-1.9846 3.4576-3.6582 5.155-1.7901 1.8155-1.8355 1.8454-0.52579 0.34623zm73.298 24.797c2.1908-0.81968 3.7437-2.1242 4.5915-3.857 1.1276-2.3047 1.1356-5.0647 0.01913-6.5916-0.35116-0.48024-0.39233-0.4602-0.83211 0.40505-0.25447 0.50066-0.86457 1.4066-1.3558 2.0131-0.50533 0.62402-0.8931 1.4031-0.8931 1.7944 0 0.67758-0.6494 2.5267-0.88736 2.5267-0.06634 0-0.05674-0.47625 0.02133-1.0583 0.15752-1.1744-0.02569-1.2979-0.83671-0.56418-1.8456 1.6697-1.7519 1.1157 0.12845-0.75873 3.486-3.4752 5.0016-7.0801 5.01-11.917 0.0046-2.6745-0.47098-4.7019-1.7284-7.3679-1.6643-3.5286-6.4591-7.5201-10.847-9.0298-2.3091-0.79445-2.3525-0.7522-1.3164 1.2809 3.8066 7.4693 5.5845 18.867 4.6296 29.679-0.14781 1.6735-0.33274 3.3284-0.41097 3.6777-0.14126 0.63065-0.13074 0.6339 1.5439 0.47752 0.92736-0.08659 2.3512-0.40631 3.1642-0.71048zm-38.806-17.462c1.3023-0.28789 2.9136-0.52602 3.5805-0.52917 0.66697-0.0031 1.2797-0.07275 1.3616-0.15467 0.18109-0.18109-1.345-4.0151-2.6192-6.5803-2.2089-4.4468-6.1047-10.3-8.6564-13.005l-0.91061-0.96541-1.698 0.29569c-0.93389 0.16263-2.6705 0.29569-3.8591 0.29569s-2.1611 0.06012-2.1611 0.1336 1.0424 1.4255 2.3165 3.0045c1.274 1.579 3.0541 4.0493 3.9556 5.4896 1.7454 2.7885 4.3958 8.1549 5.376 10.885 0.32651 0.9095 0.67302 1.6536 0.77003 1.6536 0.097 0 1.2419-0.23555 2.5442-0.52344zm25.387-6.8518c1.1642-0.30476 2.3775-0.55593 2.6964-0.55817 0.31883-0.0021 0.65014-0.11804 0.73624-0.25735 0.16583-0.26832-1.4096-3.5756-2.9672-6.229-2.4381-4.1534-5.3666-7.8243-8.9411-11.208-2.449-2.3182-5.2507-4.5349-5.7316-4.5349-0.17092 0-0.87556 0.47625-1.5659 1.0583-0.69032 0.58208-1.328 1.0583-1.4172 1.0583-0.0891 0-0.39879 0.22058-0.68816 0.49017-0.52092 0.48531-0.51228 0.50203 0.87096 1.6864 4.9031 4.1983 8.7109 9.1773 12.04 15.744 1.5157 2.9893 1.8738 3.5168 2.3214 3.4195 0.29104-0.06332 1.4817-0.36447 2.6458-0.66923zm-18.35-2.4319c4.4023-0.96426 10.318-2.5599 10.624-2.8655 0.67875-0.67875-6.5025-9.4665-10.408-12.736l-1.2798-1.0715-2.1412 1.0766c-2.9175 1.4669-4.4973 2.0726-7.2094 2.764l-2.3068 0.58813 1.6712 2.0962c2.0922 2.6242 4.5151 6.2386 5.9723 8.9092 0.61538 1.1278 1.1762 2.0505 1.2464 2.0505 0.0701 0 1.7943-0.36509 3.8315-0.81131zm35.892-2.0718c0.36392-5.0311-5.2555-9.0034-12.315-8.7052-2.6911 0.11365-3.2211 0.35774-2.6751 1.232 0.23126 0.3703 0.83062 0.65339 1.8077 0.85377 4.2867 0.87918 9.7722 4.5225 12.037 7.9948 0.65543 1.0048 1.0034 0.58696 1.1454-1.3753zm3.3032-2.1991c2.8579-1.4868 5.2227-3.7203 6.3382-5.9861 0.74298-1.5092 0.86294-2.0303 0.86294-3.7484 0-2.7173-1.0321-4.8523-3.4304-7.0958-3.7192-3.4792-7.3747-4.394-17.604-4.4058-8.5897-0.0099-16.103 1.2312-19.564 3.2316l-1.1759 0.67958 0.90566 0.75608c0.49812 0.41585 1.5358 0.99185 2.306 1.28 3.6248 1.3562 7.1733 3.6263 10.053 6.431 1.1998 1.1686 2.2204 2.0745 2.268 2.0131 0.0477-0.06142 0.39822-0.65628 0.77905-1.3219 1.3438-2.3487 5.0095-5.7478 6.9424-6.4375 0.6222-0.22202 0.49831-0.10656-1.4729 1.3726-1.5271 1.1459-2.6012 2.3438-3.7289 4.1584-1.1989 1.9292-1.2832 1.8505 1.9953 1.8663 2.3488 0.01138 3.3077 0.13765 4.7561 0.62631 3.5603 1.2011 6.4023 3.824 7.0861 6.54 0.15979 0.6346 0.34752 1.1538 0.41716 1.1538s1.0897-0.50104 2.2667-1.1134zm-10.658-14.866c0-0.05719 0.18478-0.17489 0.41062-0.26155 0.23546-0.09035 0.34166-0.046 0.24897 0.10398-0.15538 0.25141-0.65958 0.37186-0.65958 0.15757zm-7.4083 11.78c0-0.98261-5.9913-7.2254-7.7229-8.0471-0.48645-0.23084-1.2993-0.70038-1.8063-1.0434-0.50701-0.34304-1.1004-0.73026-1.3187-0.86049-0.21828-0.13023 0.60719 0.82741 1.8344 2.1281 2.0898 2.215 5.4854 6.5292 6.5278 8.2938l0.46161 0.78144 1.012-0.51631c0.55664-0.28397 1.0121-0.6152 1.0121-0.73606zm-38.365-9.8307c-3.1828-0.5344-2.956-0.68768 0.84814-0.57323 6.9789 0.20996 11.003-0.8415 14.74-3.8512 0.79693-0.64188 0.86762-0.6603 0.59849-0.15588-0.4413 0.82713-2.3052 2.3546-3.6371 2.9807-3.1236 1.4683-8.9264 2.2079-12.549 1.5996zm-11.642-2.4668c0-0.06114 0.31232-0.31581 0.69404-0.56592s0.61321-0.32398 0.51443-0.16414c-0.18877 0.30543-1.2085 0.92146-1.2085 0.73006zm2.735-2.2872c3.8591-4.3206 4.4709-10.638 1.499-15.48-0.47171-0.76844-0.57494-1.0467-0.24629-0.66398 1.3954 1.6251 2.6269 5.1084 2.6269 7.4299v1.2308l1.3955 0.28026c1.9686 0.39535 6.7701 0.977 6.9036 0.8363 0.0613-0.0646-0.052-0.89137-0.25185-1.8373-0.50656-2.398-0.46204-4.3349 0.15511-6.7479 1.1564-4.5213 3.8101-7.3186 7.5958-8.0067 0.85919-0.15616 1.515-0.15093 1.8106 0.01445 0.47867 0.26788 0.47807-0.01306-3e-3 -1.1759-0.28593-0.69186 1.12-2.0635 2.3088-2.2525 0.93491-0.14863 1.095-0.06536 2.56 1.3321 0.85953 0.81986 1.7204 1.4946 1.9132 1.4995 0.7096 0.01783-0.89168 1.0269-2.2615 1.4251l-1.4021 0.4076 1.2132 1.265c2.5221 2.6298 3.9083 7.2558 3.2918 10.986-0.14261 0.86286-0.31931 1.0638-1.3275 1.5098-1.0276 0.45453-4.1788 3.3273-5.4228 4.9435-0.3648 0.47396-0.83087 0.60223-2.7781 0.76454-5.2402 0.43681-10.93-1.0551-14.089-3.6944-0.62327-0.52082-1.2725-0.94695-1.4425-0.94695-0.17008 0-0.44531 0.57288-0.61164 1.2731-0.58217 2.4508-2.313 5.2442-4.0562 6.5463-0.3638 0.27175-0.0856-0.15067 0.61833-0.93871zm21.017-2.8721c0.56866-0.16276 0.57838-0.20455 0.17968-0.77274-0.23183-0.33037-1.0381-0.95433-1.7918-1.3866-1.3229-0.75871-1.4894-0.78629-4.8099-0.79704-1.8918-0.0061-4.2443-0.11489-5.2278-0.2417-1.823-0.23504-2.842-0.1367-2.842 0.27428 0 0.54936 3.9998 2.1825 6.7469 2.7548 1.6781 0.3496 6.7288 0.45981 7.7449 0.16899zm1.3146-4.2696c3.0464-0.55128 5.87-1.4421 6.2161-1.961 0.33273-0.49879 0.21372-3.6502-0.20491-5.4262-1.4642-6.2118-6.7682-9.5898-11.085-7.06-4.0832 2.3929-6.197 8.907-4.6354 14.285l0.29963 1.0318 3.2178-0.16568c1.7698-0.09113 4.5561-0.40787 6.1918-0.70389zm-5.6774-4.1264c-0.11391-0.279-0.20711-1.2216-0.20711-2.0948 0-1.9286 0.26551-2.7507 0.73628-2.28 0.19499 0.19499 0.32206 1.0945 0.32206 2.28 0 2.0396-0.43584 3.1121-0.85123 2.0948zm7.0671-1.9668c-0.55207-1.3328 0.088-3.7195 0.80517-3.0023 0.69649 0.69649 0.47256 3.8004-0.27419 3.8004-0.11021 0-0.34915-0.35915-0.53098-0.79812zm2.8728-9.5465c0.45828-0.15976 0.83323-0.34876 0.83323-0.42001s-0.64313-0.78824-1.4292-1.5933c-0.86237-0.88324-1.5522-1.3878-1.7392-1.2722-0.21479 0.13275-0.14149 0.30968 0.23855 0.57587 0.63715 0.44628 0.7299 1.148 0.15173 1.148-0.21828 0-0.39688 0.17859-0.39688 0.39688s0.19248 0.39688 0.42773 0.39688c0.29748 0 0.3856 0.16115 0.28936 0.52917-0.16161 0.61799 0.32962 0.69016 1.6247 0.2387zm-28.673 3.0949c-0.8759-0.20076-2.0665-0.56775-2.6458-0.81553l-1.0533-0.4505 1.2329-0.40325c0.6781-0.22179 1.7941-0.867 2.48-1.4338 1.5449-1.2766 2.1843-1.4448 3.9721-1.0447 1.5056 0.33693 2.9595 2.0296 3.442 2.9628 0.25511 0.49338-0.70643-0.57773-1.3636-1.1935-0.7997-0.74924-2.4874-1.6349-2.4874-1.2237 0 0.13048 0.11906 0.31082 0.26458 0.40075 0.48511 0.29981 0.27281 0.62536-0.46302 0.71003-0.52331 0.06021-0.72761 0.2323-0.72761 0.61289s0.2043 0.55267 0.72761 0.61289c0.80071 0.09213 0.89697 0.29186 0.39687 0.82348-0.27373 0.29098-0.0534 0.3244 1.2786 0.19389 2.0687-0.20268 2.5605-0.39675 2.3739-0.93679-0.10505-0.30412-0.0325-0.27947 0.24938 0.08471 0.21864 0.28247 0.39752 0.59602 0.39752 0.69676 0 0.59834-5.9316 0.89471-8.0748 0.40346zm-0.65642-1.069c0-0.54941-0.30488-0.65128-1.0583-0.35364-0.62936 0.24862-0.63578 0.27189-0.13229 0.4795 0.80969 0.33388 1.1906 0.29361 1.1906-0.12586zm-3.2829-4.6865c0.68264-0.94957 2.6511-2.2394 3.9443-2.5844 2.5574-0.68236 5.12-0.0168 7.0002 1.8179 0.67857 0.6622 0.86941 0.88942 0.42409 0.50492-1.4428-1.2458-3.0606-1.8896-5.0796-2.0215-1.6418-0.10724-2.0915-0.0307-3.4396 0.58532-0.85297 0.38978-1.9566 1.0892-2.4525 1.5543-0.78546 0.73664-0.83659 0.75512-0.39688 0.14347zm25.59-1.15c0.79517-1.5891 2.7235-2.784 4.4739-2.7723 0.90112 6e-3 2.931 0.8015 3.2141 1.2595 0.0891 0.14416-0.27858 0.0375-0.81705-0.23704-2.0297-1.0348-4.8182-0.35375-6.4492 1.5751-0.76719 0.90731-0.7938 0.91833-0.42169 0.17468zm-52.553-8.5205c-0.21254-0.3439 8.7884-1.2405 10.251-1.0212 1.6447 0.24664 1.7633 0.62824 0.14697 0.47293-0.72024-0.0692-2.4129 4e-3 -3.7614 0.16294-4.3334 0.51035-6.4823 0.63511-6.6367 0.38531zm-2.8266-2.5794c0.94588-0.20723 2.0174-0.3805 2.3812-0.38505 0.57893-7e-3 0.6031 0.0257 0.19371 0.26406-0.25726 0.14978-1.3288 0.32305-2.3812 0.38505l-2.9017 0.12028zm66.807-2.5876c-1.3097-0.13875-3.5303-0.27098-4.9348-0.29383-2.6827-0.0436-3.1477-0.28507-1.1315-0.58742 1.4214-0.21314 10.58 0.68515 10.099 0.99053-0.38249 0.24291-0.82065 0.23104-4.0328-0.10928zm5.2121-2.3162c-0.48033-0.11376-0.95658-0.29694-1.0583-0.40706-0.17706-0.19164 1.2593-0.028 3.5192 0.40095l1.7935 0.69936-2.0581-0.49249c-0.7276 3e-3 -1.7159-0.087-2.1962-0.2008z" fill="#0b0606" stroke-width=".26458"/>
    <path transform="matrix(.26458 0 0 .26458 -168.11 -11.76)" d="m242.21-171.32c-4.5342 0.20936-7.9287 5.2858-4.7037 9.2052 2.4158 7.3301 7.8951 13.896 8.3576 21.61-9.0476 2.9017-18.514 5.4582-27.971 6.0905-6.5919-5.1121-7.2045-15.345-13.619-20.483-12.811 1.6047-24.957 6.6716-37.67 9.0578-5.6048 2.001-12.794 1.7236-17.344 5.6387-0.25619 9.1528 7.1243 17.281 6.5482 26.424-8.4807 2.3994-17.49 3.0281-26.181 4.67-3.605 0.43018-8.3073 0.28443-9.1288-4.1472-3.8488-6.6894-4.7536-15.594-10.601-20.854-4.829-0.111-4.4487 7.1139-6.1789 10.354-5.1388 20.409-20.54 35.868-36.127 48.974-1.3942 5.5223 3.4497 10.776 2.7049 16.512-0.18636 13.985 1.6219 28.336-1.3673 42.132-2.7947 11.922-12.764 19.622-18.694 29.728-2.6539 6.5096-4.361 13.467-9.9595 18.252-14.444 14.838-37.586 16.609-56.645 11.682-11.431-3.4551-22.378-11.533-26.901-22.815-2.0447-11.715-1.5532-23.934-5.8774-35.237-1.0384-4.2189-1.544-9.3967-6.8027-10.324-6.8334-2.037-12.786-6.315-19.007-9.2531-4.1587 6.1423-2.1936 14.849-2.5629 22.091 1.1313 52.231 8.8326 106.38 36.507 151.72 4.0157 7.0327 9.9363 12.577 14.156 19.459 6.2656 6.5766 15.751 9.393 24.473 10.946 16.507 0.95199 36.091 0.8217 47.609-13.096 9.3709-11.954 17.626-24.617 29.239-34.69 13.684-13.187 30.975-21.781 48.329-29.06-6.7656 4.3447-15.807 6.2933-20.821 12.814 0.12039 5.9229 7.7533 9.425 9.9693 13.728-6.3443 3.1248-0.71895 10.356 1.9177 14.091-4.4086 3.0428 1.583 7.6083 4.3602 9.2236 16.723 9.5812 38.562 9.2773 55.645 0.75958 11.199-7.5539 15.263-21.519 22.29-32.441 20.673-37.185 38.664-75.869 53.927-115.58 15.298-42.525 17.116-89.692 6.65-133.56-3.0578-11.251-6.3306-22.756-12.139-32.902-0.63851-0.58108-1.5411-0.78719-2.3833-0.72604z" fill="url(#radialGradient3340)"/>
    <path transform="matrix(.26458 0 0 .26458 -168.11 -11.76)" d="m-36.408 157.62c-1.0226-0.0309-2.1004 0.32289-3.1211 0.38281-15.585 2.3085-30.386 8.9506-43.076 18.195-13.7 9.986-24.167 24.343-29.215 40.549-3.3281 10.04-3.5626 21.083-0.36328 31.188 4.3208 14.93 14.489 27.88 27.6 36.133 11.167 7.2071 24.134 11.24 37.217 13.133 12.348 0.21247 24.851-0.46352 36.844-3.6172 19.78-5.4113 38.164-16.769 50.682-33.16 7.6164-9.925 12.34-21.959 14.008-34.324 0.4018-9.2195-0.88091-18.403-1.707-27.566-1.0143-8.8638-2.4503-17.817-5.8301-26.119-0.46882-1.3412-2.1238-1.895-3.2637-1.0059-3.3465 2.304-6.1096 5.4085-9.7305 7.3438-9.6801 5.6476-21.117 7.3365-32.115 6.7441-10.35-0.78016-21.022-3.6551-29.078-10.484-3.8491-3.4563-7.0621-8.0202-7.9121-13.205-0.27934-1.3636 0.0029-2.8559-0.50391-4.1465-0.14356-0.0221-0.2875-0.0346-0.43359-0.0391zm4.7695 2.1133c-1.3936 0.42083-0.4705 2.2471-0.19727 3.1836 1.7494 4.8488 5.061 9.071 9.4375 11.814 6.9449 4.5086 15.143 7.0517 23.387 7.5918 6.4953 0.0852 13.156 0.18298 19.371-1.998 6.2603-2.0942 12.659-4.7352 17.422-9.4512 0.88982-1.1868 2.4193-2.2898 2.4883-3.8594-0.77419-1.1051-2.2995 0.0591-3.2656 0.31055-6.5197 3.2261-13.627 5.4586-20.949 5.5723-9.9326 0.47785-20.049 0.36467-29.523-2.8144-5.6284-1.7626-10.745-4.986-15.312-8.7246-0.90201-0.56101-1.7622-1.4905-2.8574-1.625zm-4.6426 33.371c12.821-0.0484 25.692 1.3847 37.986 5.2344 9.2023 2.819 18.382 6.4161 26.244 12.129 1.0454 0.79939-2.2646-0.72178-1.498-0.35157-12.761-5.3401-25.611-11.236-39.533-12.676-11.296-1.3619-22.707-0.93164-34.059-0.97851-8.1389 0.10597-16.321 0.14843-24.42 0.8125 11.402-3.3317 23.444-4.0969 35.279-4.1699z" fill="url(#radialGradient3244)"/>
    <path transform="matrix(.26458 0 0 .26458 -168.11 -11.76)" d="m116.88 145.78c-0.59346-0.0727-0.92839 0.72467-0.42742 1.0756 0.32499 0.40354 1.0755 0.68019 1.3436 0.0624 0.34381-0.43978 0.0472-1.1034-0.52211-1.1054-0.12979-0.0241-0.26204-0.0369-0.39411-0.0326zm111.66-30.52c-8.0508 0.07-16.215 0.4986-23.919 3.0428-4.4256 1.4248-9.015 2.6659-13.026 5.0754-1.1729 0.4929-0.93883 1.824-0.20864 2.6028 2.4679 3.3598 5.3073 6.6735 6.089 10.888 0.36485 0.90599 0.7467 2.8984 2.1278 2.2196 7.3354-2.6105 14.573-5.7578 22.212-7.2768 0.85828-0.26171 1.0073 0.21687 0.18792 0.60521-4.67 2.8843-10.207 4.0794-15.158 6.4596-14.63 6.4228-27.981 15.317-41.363 23.954-2.1808 1.448-4.4026 2.9794-6.4884 4.4742 3.3524-3.5566 6.9076-6.9314 10.13-10.605 0.14895-1.3721-1.6317-0.41198-2.3251-0.32406-6.9804 0.99048-14.144 0.74684-21.2 0.66477-10.42-0.0923-20.828-2.0239-30.17-6.7829-4.0291-1.8486-8.0083-4.4002-10.101-8.4728-0.98383-1.4826-1.8351-3.2898-3.4571-4.1348-3.3431 1.5423-5.4783 4.7851-7.8288 7.4877-5.1131 6.143-8.5356 14.479-6.5284 22.511 2.0226 7.8782 7.1025 14.551 12.396 20.549 13.006 14.186 31.076 22.565 49.396 27.528 13.625 3.744 27.745 6.0116 41.907 5.4779 13.796-0.0163 27.721-0.84728 41.08-4.5305 17.505-4.5303 34.899-11.581 48.472-23.835 9.5101-8.5597 16.646-20.448 17.344-33.437 0.37976-8.7738-4.2354-16.97-9.9808-23.281-9.1211-9.704-21.78-15.144-34.402-18.655-8.2224-1.9488-16.772-2.1646-25.186-2.2058zm-40.128 12.677c-1.8141 2.0019-2.8738 4.6464-4.4437 6.8621-2.9717 4.7724-6.6906 9.476-12.015 11.668-10.888 4.8922-23.17 5.6727-34.891 4.5556-6.3769-0.51213-12.497-2.7665-18.545-4.8318-0.95345-0.49557-1.6645 0.91834-0.69349 1.3756 4.6677 2.5204 9.9012 3.8157 15.005 5.1544 9.0173 2.2757 18.421 1.7645 27.614 1.2 9.2839-0.64061 18.183-4.0602 26.283-8.4956 3.1093-1.9126 6.982-4.1574 7.4839-8.1468 0.14297-3.5116-2.7083-6.0874-4.6654-8.6713-0.30439-0.29847-0.62968-0.81445-1.1322-0.67015zm-80.167 6.0885c-2.1165 1.6155-1.228 4.6688 0.22294 6.4077 1.6916 2.0288 3.417 4.3662 5.8888 5.4503 1.3635-0.19981 0.13378-1.7183-0.25205-2.3103-1.8758-2.835-4.4934-5.4132-4.9157-8.9463-4e-3 -0.48912-0.49542-1.0009-0.944-0.60127z" fill="url(#radialGradient3252)"/>
    <path transform="matrix(.26458 0 0 .26458 -168.11 -11.76)" d="m73.886-409c-7.6064-0.0744-15.271 0.40905-22.625 2.4869-16.658 4.2907-32.179 12.966-44.495 24.986-1.7624 1.7543-3.7926 3.3079-5.3175 5.2686 0.41026 1.5302 1.9327 2.6108 2.7986 3.9321 0.81446 1.0042 1.6201 2.0169 2.3759 3.0665-4.6334-4.4332-9.1823-9.2537-15.216-11.779-9.3595-4.3528-20.309-3.9086-29.924-0.62478-7.761 2.5653-15.621 4.8144-23.491 7.0247-4.7855 1.8976-10.084 1.9921-15.157 2.1653-1.3801 0.1839-3.0194-0.1493-4.2241 0.62197-0.41623 1.2974 1.4195 1.8898 2.2442 2.4808 4.527 2.1122 8.4869 5.1161 11.978 8.6803 5.5178 5.2732 10.43 11.11 14.375 17.647 3.4491 5.1176 9.5635 7.2189 14.77 10.023 6.7016 3.3767 13.676 6.1609 20.734 8.6928-1.8154-0.42359-4.4769-1.2126-5.6357 0.82025-2.1086 4.1966-2.8877 8.9196-4.2966 13.374-1.7801 6.7926-3.9186 13.509-5.3008 20.396-1.3039 10.104-0.61846 20.42 1.3034 30.401 1.7526 8.1302 5.8025 15.536 9.8855 22.701 7.9396 13.224 20.581 23.161 34.586 29.343 9.5712 4.3169 19.324 8.4741 29.587 10.839 10.334 2.0884 20.853 3.1985 31.364 3.8774 8.3686-0.0575 16.808 0.18528 25.074-1.3528 16.973-2.7589 33.848-7.2905 49.066-15.47 11.177-5.8374 21.234-13.611 30.501-22.089 5.5925-5.0508 12.193-8.755 18.139-13.336 5.0786-4.2997 9.9726-9.1092 13.155-15.019 2.7887-5.8757 3.6185-12.481 3.0926-18.921-0.59945-9.1032-4.2984-18.009-10.66-24.597-5.2143-6.0702-12.492-9.7249-19.719-12.831-1.9479-1.0818-4.4568-1.6093-5.8419-3.4704-1.666-3.9517-2.0728-8.303-3.2424-12.425-3.168-12.712-7.3207-25.541-15.358-36.087-7.7826-10.395-17.641-19.164-28.459-26.299-12.153-7.8767-26.251-12.71-40.652-14.127-5.1262-0.41769-10.275-0.40551-15.415-0.40149zm-100.86 41.919c2.3694 0.0261 4.8518 0.0903 7.1352 0.94061-7.5212 0.1444-15.085 0.30854-22.563 1.3332-6.3508 0.6662-12.716 1.455-19.093 1.2232 7.6351-1.624 15.453-2.1447 23.21-2.8798 3.7641-0.285 7.5536-0.59162 11.31-0.61722zm180.31 25.681c3.906 0.38139 7.6052 1.9216 10.961 3.8926-3.1243-1.3695-6.3593-2.8334-9.8682-2.527-5.9873-0.16357-11.792 2.5392-15.862 6.87-0.4722 0.37829-2.1882 2.5238-1.2907 1.1034 3.2294-5.6029 9.6579-9.1869 16.06-9.339zm-91.218 4.0746c6.065-8.8e-4 12.058 2.291 16.713 6.1438-5.61-3.5919-12.342-5.0346-18.95-4.8207-2.7704-0.20604-5.5283 0.28684-8.0159 1.5412-3.9023 1.711-7.6239 3.8838-10.919 6.5936 5.21-5.1376 12.126-9.2089 19.641-9.4235 0.50957-0.0273 1.0201-0.0358 1.5304-0.0344zm91.915 7.0286c3.0983 0.18175 5.0782 3.0006 7.319 4.7988 2.5182 2.1791 4.9354 4.7843 7.9378 6.2034-2.7004 2.5801-6.4667 3.6319-9.8902 4.8343-1.2931 0.54427-2.9338 0.60022-4.0308 1.445-0.25023 1.0466 1.2746 1.7357 1.767 2.5818 5.5474 5.4613 9.9976 12.093 12.353 19.55 2.8032 8.0056 3.682 16.706 2.3271 25.102-0.31895 3.0002-3.6307 3.9269-5.7946 5.3003-7.955 5.2451-14.292 12.483-20.897 19.248-2.42 1.1976-5.2367 1.0678-7.8742 1.4386-15.226 1.3024-30.953-1.0788-44.755-7.8755-4.886-2.2599-8.8912-5.9075-13.326-8.869-0.88754-0.74373-2.2613-0.66989-2.7336 0.50273-1.8773 4.0911-2.5812 8.6609-4.6971 12.648-2.697 5.4823-6.1367 10.817-10.752 14.805 5.5844-6.2734 10.243-13.533 12.504-21.685 3.4075-11.96 2.3461-25.249-3.5356-36.275-0.22387-0.53823-1.7527-3.1958-0.98998-1.9778 5.21 8.4639 7.9155 18.642 7.7499 28.624-0.09467 1.7164 2.0692 1.4597 3.1834 1.828 9.3855 1.7421 18.871 2.9257 28.376 3.7841 1.1299-0.54247 0.18762-2.2429 0.2698-3.286-1.1814-6.9162-2.6435-13.887-1.7621-20.907 1.3425-11.237 5.3232-22.855 13.747-30.663 5.7298-5.2291 13.668-8.686 21.485-8.3377 1.0633-0.15876 2.6158 1.3842 3.2282-0.0419 0.0593-2.3818-2.3624-4.811-0.76107-7.1115 2.0725-3.1335 5.7676-5.446 9.5516-5.6639zm-89.039 9.1205c4.6383 0.1777 9.2435 2.0569 12.368 5.5208 1.8074 1.5971 3.089 3.6055 4.6714 5.3892 1.1224 0.77051 1.9418 2.1849 2.4524 3.4443-1.3709 1.1568-3.446 0.99511-5.1313 1.3926-7.0245 0.79201-14.126 0.96367-21.161 0.35347-5.7151-0.60545-11.152-2.6578-16.442-4.8298 4.6358-1.5273 9.1317-3.588 12.944-6.6853 2.9278-2.3813 6.2796-4.8962 10.298-4.5852zm91.887 90.69c-2.2223 3.4385-5.6264 5.9345-8.8419 8.3913-6.5451 4.6448-14.593 6.4009-22.345 7.9199-10.548 1.8174-21.434 2.519-31.995 0.49639-1.5584-0.27138-3.1201-0.5418-4.6512-0.94357 14.563-0.21888 29.53 1.0132 43.745-3.0443 8.3806-2.2653 16.073-6.5562 22.835-11.948 0.39273-0.28591 0.90661-0.67728 1.2532-0.87126zm-102.24 6.7021c-0.91573 0.63455-0.38214 0.23182 0.23676-0.16968l-0.20527 0.14711z" fill="url(#radialGradient3302)"/>
    <path transform="matrix(.26458 0 0 .26458 -168.11 -11.76)" d="m138.67-315.86c-8.0347-0.16045-15.197 4.8575-20.085 10.869-6.1733 7.7137-9.7 17.416-10.568 27.214-0.38608 6.9259-0.21116 14.001 1.9999 20.644 0.54995 1.0704 0.28999 3.579 2.0925 3.0146 10.122-0.63326 20.305-1.0465 30.352-2.6348 8.7485-1.3954 17.564-3.1423 25.73-6.6756 1.5203-0.56824 2.8686-1.7736 2.9047-3.503 0.5607-6.2798-0.0215-12.66-1.299-18.824-2.6114-11.621-9.7244-22.914-20.813-28.018-3.2197-1.5458-6.7543-2.1915-10.314-2.086zm15.376 23.644c1.7787 0.70952 1.771 3.112 2.0514 4.7238 0.12085 2.9097 0.30632 6.1439-1.3456 8.721-0.68428 1.0428-1.471-0.47555-1.8274-1.0417-1.7048-3.2601-1.449-7.1098-0.43306-10.564 0.303-0.67517 0.67848-1.7632 1.5547-1.8393zm-27.508 2.3251c1.3207 0.84115 1.1084 2.8316 1.3599 4.2211 0.13158 4.1392 0.49902 8.4483-0.78524 12.481-0.14519 0.56405-0.74528 1.2401-1.0289 0.40346-1.2547-2.3206-0.91017-5.1732-1.1251-7.7014 0.1088-3.0039-0.18143-6.2312 1.0077-9.0766 0.12015-0.19447 0.3226-0.38706 0.57166-0.32751z" fill="url(#radialGradient3312)"/>
    <path transform="matrix(.26458 0 0 .26458 -168.11 -11.76)" d="m156.39-402.91c-7.9873-0.11259-16.009 2.5856-22.395 7.3187-1.05 2.2375 2.4529 3.5779 3.5474 5.0596 11.253 8.9325 21.193 19.586 28.418 32.043 1.6043 2.0402 2.3712 5.2528 4.6941 6.5607 4.5663-2.0188 9.1338-4.5071 12.934-7.7794 5.163-6.3844 9.6919-13.319 15.755-18.944 4.0049-4.2674 8.7744-7.7248 13.475-11.051-2.7519-1.5539-6.6624-1.3681-9.9131-1.9818-11.573-1.3104-22.225-6.4714-33.411-9.4237-4.2129-1.4595-8.6697-1.8714-13.104-1.8024zm3.5484 16.951c11.241 0.21869 22.528 1.0074 33.583 3.0689 1.0609 0.60525-1.9152 0.60989-2.555 0.57216-12.014-1.0854-24.112-1.8484-36.187-2.4968-0.55913-0.0314-3.6484-0.32921-1.6158-0.70434 2.2277-0.42462 4.5158-0.4113 6.7751-0.43997z" fill="url(#radialGradient3322)"/>
    <path transform="matrix(.26458 0 0 .26458 -168.11 -11.76)" d="m106.97-193.7c-8.448 1.8391-17.083 2.1904-25.702 2.417-1.1899 0.2481-2.7519-0.30258-3.6729 0.63815-0.12281 1.5077 1.5097 2.5554 2.1688 3.8029 9.5542 12.211 19.399 24.329 26.667 38.094 6.4331 11.696 11.931 23.86 16.807 36.278 0.38831 1.2163 1.4172 2.8067 2.9148 2.1044 8.2298-1.723 16.421-3.6474 24.871-3.9698 1.128-0.016 3.0771-0.12292 2.8272-1.7426-1.1411-4.7272-3.2094-9.1927-5.0213-13.696-7.7438-18.003-18.076-34.82-29.816-50.48-3.5998-4.6534-7.348-9.2831-11.596-13.326-0.15525-5e-3 -0.27655-0.20867-0.44784-0.12006z" fill="url(#linearGradient3358)"/>
    <path transform="matrix(.26458 0 0 .26458 -168.11 -11.76)" d="m176.7-225.51c-3.9106 1.787-6.8941 5.0902-10.436 7.4805-1.8936 1.0914-3.9206 2.3169-5.0784 4.2414-0.40453 1.8064 1.7813 2.7644 2.7246 3.9449 10.786 9.3433 20.788 19.61 29.144 31.202 7.8662 10.697 14.36 22.298 20.36 34.138 1.7227 2.8973 2.9655 6.2638 5.5251 8.5504 1.4756 0.91282 3.2276-0.29572 4.7885-0.40714 6.2182-1.4822 12.394-3.0948 18.7-4.1593 1.2664-0.12423 2.032-1.4104 1.4768-2.5653-2.4458-7.116-6.1999-13.703-9.7985-20.286-13.092-23.063-31.111-43.271-52.276-59.218-1.6338-1.0053-3.1877-2.5968-5.1297-2.921z" fill="url(#linearGradient3356)"/>
    <path transform="matrix(.26458 0 0 .26458 -168.11 -11.76)" d="m255.23-244.82c-7.7313-0.0119-15.469 0.0945-23.171 0.83098-13.752 1.2107-27.619 2.9491-40.717 7.5036-4.5417 1.565-8.8321 3.8096-12.874 6.3825-0.81868 1.0746 0.7887 1.8355 1.4074 2.5062 4.155 3.8813 9.5279 5.9432 14.699 8.0706 12.301 5.2426 23.559 12.797 33.224 22.05 2.9192 2.6404 5.6318 5.541 8.7834 7.9075 0.94187 0.69969 1.7608-0.41834 2.0633-1.2172 2.9062-5.2792 6.4382-10.272 10.728-14.506 4.5779-4.6112 9.4425-9.0713 15.131-12.28-5.2241 3.9031-10.491 7.9392-14.34 13.282-2.3247 3.2518-4.6787 6.53-6.4628 10.116-0.62608 1.051-0.43411 2.6843 0.91588 3.0238 3.0412 0.69367 6.2141 0.41794 9.3113 0.58476 5.7923 0.12789 11.747 0.0452 17.295 2.0128 9.9228 3.1493 19.164 9.354 24.673 18.339 1.9975 3.1593 2.614 6.8382 3.9324 10.274 0.25518 0.86802 1.2574 0.97596 1.9023 0.4639 6.6195-3.2544 13.327-6.5227 19.022-11.288 7.1657-5.7231 13.137-13.318 15.713-22.217 0.91992-3.7289 0.65368-7.63 0.51165-11.432-0.616-7.8826-4.6224-15.14-10.045-20.759-6.0261-6.4093-13.295-11.86-21.7-14.686-10.092-3.4444-20.836-4.2409-31.413-4.8017-6.1948-0.1677-12.393-0.16511-18.59-0.16203z" fill="url(#radialGradient3385)"/>
    <path transform="matrix(.26458 0 0 .26458 -168.11 -11.76)" d="m108.71-135.43c-1.1839 0.2226-1.2832 2.4908 0.18799 2.146 0.94427-0.11098 1.4909-1.3805 0.56955-1.9392-0.20781-0.17277-0.48887-0.26195-0.75754-0.20682z" fill="#000333"/>
    <path transform="matrix(.26458 0 0 .26458 -168.11 -11.76)" d="m200.5-213.47c-1.1222 0.15851-0.72339 1.512-0.0764 1.9988 5.1903 5.9043 10.677 11.55 15.589 17.698 5.9819 7.367 11.834 14.814 16.707 22.959 0.80344 1.0128 1.9731-0.22918 2.8471-0.51418 2.0905-1.1361 4.4158-2.0782 6.0176-3.9044 0.44412-1.0894-0.57786-2.151-1.0449-3.1146-3.9535-5.8484-8.9901-10.861-13.897-15.901-4.3896-4.264-8.6437-8.8091-13.875-12.062-4.1057-2.0482-7.8369-4.708-11.776-7.0654-0.15671-0.0596-0.32276-0.1076-0.49247-0.0945zm-43.34 2.132c-2.4397 0.66788-4.6082 2.1052-6.9114 3.1297-7.8961 3.9717-15.938 7.8243-24.534 10.058-4.1884 1.1953-8.4433 2.1497-12.627 3.3567-1.1409 0.81739 0.31429 1.8557 0.75718 2.6165 8.6284 10.803 16.917 21.906 23.986 33.806 2.7895 4.4951 5.0981 9.3267 8.0627 13.725 1.0574 1.0199 2.5892-0.0548 3.8066-0.096 16.15-3.4142 32.267-7.0909 48.069-11.888 1.4558-0.54783 3.11-0.8587 4.316-1.8658 0.14614-2.5318-1.5895-4.6716-2.7825-6.7648-6.1215-9.237-13.343-17.689-20.719-25.937-6.5114-7.1363-13.274-14.112-20.911-20.053-0.15979-0.0739-0.33853-0.0975-0.51305-0.0862zm-181.4-26.07c-1.2701 0.36212-1.2923 2.0484-1.8064 3.0563-3.4438 9.8951-8.3315 19.216-13.658 28.236-6.0539 10.003-13.278 19.382-22.085 27.179-13.52 12.029-29.09 21.391-43.65 32.055-5.6392 3.8856-10.563 8.6772-15.43 13.465-3.7086 4.1828-6.7198 9.2101-7.8048 14.747-0.73508 5.6584-0.61817 11.418 0.0297 17.079 1.5724 6.4865 5.4151 12.127 9.315 17.433 8.3302 10.89 17.93 20.782 28.233 29.812 4.88 4.0961 9.8183 8.3295 15.657 11.003 5.1067 2.2355 10.723 3.2754 16.293 2.8809 6.7717-0.45623 13.397-2.6319 19.312-5.9208 6.8425-3.8938 12.289-10.287 14.624-17.846 1.8008-5.3978 2.0256-11.215 1.3679-16.83-1.0684-6.9515-4.2087-13.606-9.2124-18.59-4.2803-4.4762-9.7856-7.4676-14.888-10.879-2.4972-1.5908-5.0682-3.0688-7.7349-4.3577 5.764 0.19456 11.395-1.3786 16.975-2.6132 6.8381-1.676 13.591-3.7746 20.05-6.5898-7.9127 4.1064-16.082 7.8612-24.667 10.406-1.1118 0.52881-2.7513 0.70239-3.267 1.9667 0.08113 1.2105 1.484 1.7691 2.2231 2.5799 5.2172 4.1687 10.508 8.2908 16.193 11.808 1.7992 1.2749 4.1035 0.8149 5.9888 0.01325 5.4897-2.1817 10.686-4.9218 16.432-6.3808 5.9484-1.6756 12.263-2.5102 18.522-2.2635 8.3434 0.15884 16.58 2.366 24.232 5.6563 9.5823 4.1755 18.285 10.59 24.718 18.89 1.279 1.4443 2.3069 3.1631 3.7146 4.455 0.97996 0.2702 1.6655-0.93013 2.4696-1.3445 9.4045-7.3564 17.607-16.238 24.383-26.06 3.6506-5.2008 6.3453-11.001 8.3433-17.019 1.46-4.2501 2.7542-8.593 3.3203-13.055 0.42913-2.4852 2.1744-4.6052 2.2461-7.1544-0.29663-2.7126-2.1081-4.945-3.3054-7.3149-8.2401-14.056-18.151-27.098-29.018-39.22-1.6096-1.9258-3.8541-3.306-6.3648-3.6261-6.5054-0.95618-13.049-1.5514-19.483-2.9005-8.0856-1.6582-16.123-3.593-23.872-6.4998-9.6659-3.8934-19.079-8.7575-27.809-14.524-4.4032-2.7906-7.8911-6.7363-11.482-10.436-2.8238-3.1952-5.6582-6.4522-7.8233-10.141-0.25369-0.52127-0.58809-1.2156-1.2817-1.1548zm43.164 77.312c-2.0722 4.3923-5.1076 8.2464-8.1104 12.032 2.8424-3.9485 5.0381-8.3417 8.14-12.106z" fill="url(#radialGradient3377)"/>
   </g>
   <path transform="scale(.26458)" d="m89.371-253.86c-1.8088-0.72253-3.4898 1.1727-1.5499 2.2852 8.7506 5.2329 18.789 8.433 28.836 10.018 8.5058 0.34195 17.216 1.2064 25.642-0.0795 3.1643-1.296-0.933-4.1527-2.251-5.235-4.5992-3.5278-9.8186-6.7738-15.876-5.9047-11.598-0.42117-23.193-1.0775-34.802-1.0841z" fill="url(#linearGradient3332)"/>
   <g fill="#fdfeff" stroke="#000" stroke-linecap="round" stroke-linejoin="bevel" stroke-opacity=".67529" stroke-width=".067492">
    <path transform="matrix(.26458 0 0 .26458 -34.902 -108.63)" d="m200.4 91.366c-0.56903-0.02634-0.52319 0.68296-0.29244 1.0167 0.43258 0.83813 1.5846 1.1222 1.7991 2.0813-0.11972 0.82368-1.0763 1.1203-1.7646 1.2966-1.141 0.30703-2.6044 0.21132-3.3876 1.2565-0.62613 1.0255-0.39482 2.6636 0.81107 3.155 1.2714 0.61181 2.8582 0.29904 4.0189 1.1459 0.5667 0.56731-0.0617 1.3492-0.44957 1.8312-0.2536 0.39545-0.74609 0.71874-0.83356 1.1923 0.34603 0.474 1.0624 0.27373 1.5648 0.33599 3.0879-0.11034 6.1737-0.43829 9.216-0.97895 1.1279-0.28222 2.4553-0.42779 3.2762-1.3384 0.27581-0.3159 0.43496-0.93107-0.0297-1.1574-3.054-2.7701-5.7521-6.0417-9.4379-8.0192-1.4147-0.71754-2.8192-1.6465-4.4298-1.819z"/>
    <path transform="matrix(.26458 0 0 .26458 -34.902 -108.63)" d="m182.21 99.402c-1.3692 0.11367-2.6567 0.69698-3.8707 1.3051-0.267 0.0963-0.32667 0.45359-0.0213 0.55402 1.2141 0.66522 2.552 1.1794 3.9322 1.3456 0.62307 0.091 1.5057-0.059 1.6126-0.8116 0.0788-0.77207 0.095-1.8498-0.70731-2.2564-0.29581-0.12995-0.62709-0.14559-0.94553-0.13672z"/>
    <path transform="matrix(.26458 0 0 .26458 -34.902 -108.63)" d="m286.15 81.198c-0.59215 0.0608-0.80683 0.84568-0.39063 1.2449 1.0548 1.1411 2.6826 1.9494 3.0406 3.5796 0.26028 0.70715-0.18375 1.617-0.98825 1.675-0.69629 0.09176-1.6157 0.29045-1.7817 1.1032-0.29204 0.80922 0.2477 1.7456 1.0941 1.8879 0.54759 0.13044 1.3343 0.05541 1.5805 0.69824 0.0849 0.88058-0.24902 1.785-0.0858 2.658 0.33647 0.72586 1.2014 0.76131 1.8891 0.68133 2.2082-0.21296 4.3132-1.021 6.3336-1.8981 0.35234-0.2259 0.97079-0.35539 1.0532-0.82336-0.93206-1.3509-2.145-2.4976-3.2374-3.7216-2.2127-2.3137-4.4026-4.7122-7.0674-6.5173-0.44028-0.26518-0.91441-0.5422-1.4399-0.5678z"/>
   </g>
  </g>
 </g>
</svg>
