<svg width="16" height="16" version="1.1" viewBox="0 0 16 16" xml:space="preserve" xmlns="http://www.w3.org/2000/svg"><defs><linearGradient id="linearGradient1475" x1="150.96" x2="112.03" y1="192.35" y2="137.27" gradientTransform="matrix(.56254 0 0 .56797 132.1 159.58)" gradientUnits="userSpaceOnUse"><stop stop-color="#ffd43b" offset="0"/><stop stop-color="#ffe873" offset="1"/></linearGradient><linearGradient id="linearGradient1478" x1="26.649" x2="135.67" y1="20.604" y2="114.4" gradientTransform="matrix(.56254 0 0 .56797 132.1 159.58)" gradientUnits="userSpaceOnUse"><stop stop-color="#5a9fd4" offset="0"/><stop stop-color="#306998" offset="1"/></linearGradient></defs><g transform="matrix(.072598 0 0 .072598 -1.1805 -12.371)"><path d="m76.813 327.97c-0.77074-0.92867-1.9718-5.1348-2.669-9.347l-1.2677-7.6585 0.41073-17.488 0.41072-17.488-5.4273-2.7217c-2.985-1.497-10.209-4.9306-16.054-7.6304l-10.627-4.9086-4.6673-7.6544 0.03383-3.0151c0.07553-6.73 4.3826-9.3046 28.323-16.93 22.924-7.3018 19.317-3.5007 22.953-24.187 1.68-9.5569 3.587-19.05 4.2378-21.097l1.1833-3.7208 7.1292-6.8302h7.3074l2.938 2.7602c1.6159 1.5181 6.7773 9.1808 11.47 17.028 4.6924 7.8474 9.0358 14.58 9.6521 14.961l1.1205 0.6925 44.459-11.487 6.8832 2.4207 2.3097 6.5676-1.9616 3.9311c-1.0789 2.1621-8.2298 11.258-15.891 20.213-16.545 19.339-16.045 15.486-4.7917 36.907l9.171 17.458-0.74704 3.9821-0.74705 3.9821-6.1911 5.813-11.26-0.33055-13.87-4.4692c-7.6283-2.458-14.955-4.6708-16.282-4.9173l-2.4121-0.44807-24.121 26.635-14.109 10.667h-5.4959zm28.325-36.604c7.8748-8.7892 14.781-15.98 15.347-15.98 0.56631 0 7.8437 1.92 16.172 4.2667 18.475 5.2057 17.735 6.2431 8.2536-11.581-9.6924-18.22-10.149-14.812 4.242-31.674 6.6754-7.822 11.967-14.655 11.759-15.184l-0.37801-0.9623-17.419 4.6921c-21.017 5.6613-18.375 6.6214-28.47-10.343-10.77-18.099-9.4225-18.804-13.879 7.2559l-2.7051 15.818-18.513 5.7891c-22.314 6.9776-22.152 5.9806-2.2315 13.7l16.282 6.3097-9.05e-4 2.64c-7.41e-4 1.452-1.0856 11.052-2.4108 21.334-2.7779 21.553-2.7283 20.828-1.3888 20.302 0.56284-0.22111 7.4664-7.5932 15.341-16.382z" fill="#e25a1c" stroke-width=".90454"/><g transform="matrix(1.3494,0,0,1.3494,-134.08,1.1245)"><path d="m202.01 171.28c-4.5836 0.0213-8.9609 0.41222-12.812 1.0938-11.346 2.0045-13.406 6.2001-13.406 13.938v10.219h26.812v3.4062h-36.875c-7.7924 0-14.616 4.6837-16.75 13.594-2.4618 10.213-2.571 16.586 0 27.25 1.9059 7.9378 6.4575 13.594 14.25 13.594h9.2188v-12.25c0-8.8499 7.6572-16.656 16.75-16.656h26.781c7.455 0 13.406-6.1382 13.406-13.625v-25.531c0-7.2663-6.13-12.725-13.406-13.938-4.606-0.76673-9.3851-1.115-13.969-1.0938zm-14.5 8.2188c2.7696 0 5.0312 2.2986 5.0312 5.125 0 2.8163-2.2617 5.0938-5.0312 5.0938-2.7795 0-5.0312-2.2774-5.0312-5.0938 0-2.8264 2.2518-5.125 5.0312-5.125z" fill="url(#linearGradient1478)"/><path d="m232.73 199.94v11.906c0 9.2308-7.8259 17-16.75 17h-26.781c-7.3358 0-13.406 6.2785-13.406 13.625v25.531c0 7.2663 6.3186 11.54 13.406 13.625 8.4873 2.4956 16.626 2.9466 26.781 0 6.7502-1.9544 13.406-5.8876 13.406-13.625v-10.219h-26.781v-3.4062h40.188c7.7925 0 10.696-5.4354 13.406-13.594 2.7993-8.3989 2.6802-16.476 0-27.25-1.9258-7.7574-5.6039-13.594-13.406-13.594zm-15.062 64.656c2.7795 0 5.0312 2.2774 5.0312 5.0938 0 2.8264-2.2518 5.125-5.0312 5.125-2.7696 0-5.0312-2.2986-5.0312-5.125 1e-5 -2.8163 2.2617-5.0938 5.0312-5.0938z" fill="url(#linearGradient1475)"/></g></g></svg>
