<svg width="16" height="16" version="1.1" viewBox="0 0 24 16" xmlns="http://www.w3.org/2000/svg">
 <path class="jp-terminal-icon-background-color jp-icon-selectable" d="m2-1.75h20v20h-20z" fill="#333"/>
 <path class="jp-terminal-icon-color jp-icon-selectable-inverse" d="m9.01 11.012q0-0.246-0.077-0.434a0.9 0.9 0 0 0-0.234-0.351 1.6 1.6 0 0 0-0.422-0.288 5 5 0 0 0-0.627-0.263q-0.592-0.211-1.078-0.446a3.5 3.5 0 0 1-0.832-0.544 2.2 2.2 0 0 1-0.528-0.721 2.4 2.4 0 0 1-0.187-0.985q0-0.498 0.17-0.908a2.1 2.1 0 0 1 0.48-0.72q0.31-0.306 0.75-0.493 0.44-0.188 0.979-0.24v-1.259h0.937v1.272q0.527 0.07 0.95 0.287 0.421 0.217 0.714 0.568 0.3 0.345 0.457 0.82 0.165 0.47 0.164 1.055h-1.628q0-0.709-0.323-1.072-0.322-0.37-0.873-0.37-0.299 0-0.521 0.083a0.9 0.9 0 0 0-0.358 0.223 0.9 0.9 0 0 0-0.21 0.334q-0.066 0.194-0.065 0.421 0 0.23 0.064 0.41a0.9 0.9 0 0 0 0.229 0.329q0.165 0.152 0.428 0.293 0.263 0.134 0.656 0.275 0.591 0.223 1.072 0.463 0.48 0.235 0.82 0.55 0.346 0.312 0.528 0.727 0.187 0.41 0.187 0.973 0 0.515-0.17 0.932-0.17 0.41-0.486 0.709t-0.762 0.48a3.7 3.7 0 0 1-0.996 0.229v1.148h-0.931v-1.149a4 4 0 0 1-0.967-0.217 2.6 2.6 0 0 1-0.832-0.504 2.4 2.4 0 0 1-0.574-0.826q-0.217-0.505-0.217-1.207h1.635q0 0.421 0.123 0.709 0.123 0.281 0.316 0.45 0.2 0.165 0.451 0.235 0.252 0.07 0.516 0.07 0.627 0 0.949-0.292a0.98 0.98 0 0 0 0.322-0.756m8.36 3.51h-5.343v-1.272h5.344z" fill="#fff"/>
 <g transform="matrix(.42612 0 0 .42614 9.6683 2.6989)" fill="#f9f9f9">
  <path d="m11 16c0 0.5523-0.4477 1-1 1-0.55228 0-1-0.4477-1-1s0.44772-1 1-1c0.5523 0 1 0.4477 1 1z"/>
  <path d="m14 19c0.5523 0 1-0.4477 1-1s-0.4477-1-1-1-1 0.4477-1 1 0.4477 1 1 1z"/>
  <path d="m7 2c0-0.55228 0.44772-1 1-1h8c0.5523 0 1 0.44772 1 1s-0.4477 1-1 1h-1v5.7479l5.6899 10.567c0.8968 1.6655-0.3095 3.6852-2.2012 3.6852h-12.977c-1.8917 0-3.098-2.0197-2.2012-3.6852l5.6898-10.567v-5.7479h-1c-0.55228 0-1-0.44772-1-1zm4 1h2v6.2521l0.9412 1.7479h-3.8824l0.9412-1.7479zm-2.0181 10-3.9108 7.263c-0.17937 0.3331 0.0619 0.737 0.44024 0.737h12.977c0.3783 0 0.6196-0.4039 0.4402-0.737l-3.9108-7.263z" clip-rule="evenodd" fill-rule="evenodd"/>
 </g>
</svg>
